<?xml version="1.0" encoding="UTF-8" standalone="no"?>
<!DOCTYPE svg PUBLIC "-//W3C//DTD SVG 1.1//EN"
 "http://www.w3.org/Graphics/SVG/1.1/DTD/svg11.dtd">
<!-- Generated by graphviz version 8.0.5 (20230430.1635)
 -->
<!-- Pages: 1 -->
<svg width="905pt" height="548pt"
 viewBox="0.00 0.00 905.13 548.00" xmlns="http://www.w3.org/2000/svg" xmlns:xlink="http://www.w3.org/1999/xlink">
<g id="graph0" class="graph" transform="scale(1 1) rotate(0) translate(4 544)">
<polygon fill="white" stroke="none" points="-4,4 -4,-544 901.13,-544 901.13,4 -4,4"/>
<!-- [root] azurerm_network_interface.qa_nic (expand) -->
<g id="node1" class="node">
<title>[root] azurerm_network_interface.qa_nic (expand)</title>
<polygon fill="none" stroke="black" points="745.47,-324 539.72,-324 539.72,-288 745.47,-288 745.47,-324"/>
<text text-anchor="middle" x="642.59" y="-300.95" font-family="Times,serif" font-size="14.00">azurerm_network_interface.qa_nic</text>
</g>
<!-- [root] azurerm_subnet.qa_subnet (expand) -->
<g id="node3" class="node">
<title>[root] azurerm_subnet.qa_subnet (expand)</title>
<polygon fill="none" stroke="black" points="723.34,-252 561.84,-252 561.84,-216 723.34,-216 723.34,-252"/>
<text text-anchor="middle" x="642.59" y="-228.95" font-family="Times,serif" font-size="14.00">azurerm_subnet.qa_subnet</text>
</g>
<!-- [root] azurerm_network_interface.qa_nic (expand)&#45;&gt;[root] azurerm_subnet.qa_subnet (expand) -->
<g id="edge1" class="edge">
<title>[root] azurerm_network_interface.qa_nic (expand)&#45;&gt;[root] azurerm_subnet.qa_subnet (expand)</title>
<path fill="none" stroke="black" d="M642.59,-287.7C642.59,-280.24 642.59,-271.32 642.59,-262.97"/>
<polygon fill="black" stroke="black" points="646.09,-263.1 642.59,-253.1 639.09,-263.1 646.09,-263.1"/>
</g>
<!-- [root] azurerm_resource_group.qa_resource_group (expand) -->
<g id="node2" class="node">
<title>[root] azurerm_resource_group.qa_resource_group (expand)</title>
<polygon fill="none" stroke="black" points="772.09,-108 513.09,-108 513.09,-72 772.09,-72 772.09,-108"/>
<text text-anchor="middle" x="642.59" y="-84.95" font-family="Times,serif" font-size="14.00">azurerm_resource_group.qa_resource_group</text>
</g>
<!-- [root] provider[&quot;registry.terraform.io/hashicorp/azurerm&quot;] -->
<g id="node6" class="node">
<title>[root] provider[&quot;registry.terraform.io/hashicorp/azurerm&quot;]</title>
<polygon fill="none" stroke="black" points="287.59,-36 0,-18 287.59,0 575.18,-18 287.59,-36"/>
<text text-anchor="middle" x="287.59" y="-12.95" font-family="Times,serif" font-size="14.00">provider[&quot;registry.terraform.io/hashicorp/azurerm&quot;]</text>
</g>
<!-- [root] azurerm_resource_group.qa_resource_group (expand)&#45;&gt;[root] provider[&quot;registry.terraform.io/hashicorp/azurerm&quot;] -->
<g id="edge2" class="edge">
<title>[root] azurerm_resource_group.qa_resource_group (expand)&#45;&gt;[root] provider[&quot;registry.terraform.io/hashicorp/azurerm&quot;]</title>
<path fill="none" stroke="black" d="M553.93,-71.52C495.95,-60.08 420.94,-45.29 365.3,-34.32"/>
<polygon fill="black" stroke="black" points="366.28,-30.75 355.79,-32.25 364.93,-37.62 366.28,-30.75"/>
</g>
<!-- [root] var.qa_location -->
<g id="node7" class="node">
<title>[root] var.qa_location</title>
<polygon fill="none" stroke="black" points="686.22,-36 592.97,-36 592.97,0 692.22,0 692.22,-30 686.22,-36"/>
<polyline fill="none" stroke="black" points="686.22,-36 686.22,-30"/>
<polyline fill="none" stroke="black" points="692.22,-30 686.22,-30"/>
<text text-anchor="middle" x="642.59" y="-12.95" font-family="Times,serif" font-size="14.00">var.qa_location</text>
</g>
<!-- [root] azurerm_resource_group.qa_resource_group (expand)&#45;&gt;[root] var.qa_location -->
<g id="edge3" class="edge">
<title>[root] azurerm_resource_group.qa_resource_group (expand)&#45;&gt;[root] var.qa_location</title>
<path fill="none" stroke="black" d="M642.59,-71.7C642.59,-64.24 642.59,-55.32 642.59,-46.97"/>
<polygon fill="black" stroke="black" points="646.09,-47.1 642.59,-37.1 639.09,-47.1 646.09,-47.1"/>
</g>
<!-- [root] var.qa_resource_group_name -->
<g id="node8" class="node">
<title>[root] var.qa_resource_group_name</title>
<polygon fill="none" stroke="black" points="880.84,-36 710.34,-36 710.34,0 886.84,0 886.84,-30 880.84,-36"/>
<polyline fill="none" stroke="black" points="880.84,-36 880.84,-30"/>
<polyline fill="none" stroke="black" points="886.84,-30 880.84,-30"/>
<text text-anchor="middle" x="798.59" y="-12.95" font-family="Times,serif" font-size="14.00">var.qa_resource_group_name</text>
</g>
<!-- [root] azurerm_resource_group.qa_resource_group (expand)&#45;&gt;[root] var.qa_resource_group_name -->
<g id="edge4" class="edge">
<title>[root] azurerm_resource_group.qa_resource_group (expand)&#45;&gt;[root] var.qa_resource_group_name</title>
<path fill="none" stroke="black" d="M681.56,-71.52C702.29,-62.21 727.99,-50.68 750.02,-40.79"/>
<polygon fill="black" stroke="black" points="751.17,-43.67 758.86,-36.38 748.3,-37.28 751.17,-43.67"/>
</g>
<!-- [root] azurerm_virtual_network.qa_vnet (expand) -->
<g id="node5" class="node">
<title>[root] azurerm_virtual_network.qa_vnet (expand)</title>
<polygon fill="none" stroke="black" points="742.84,-180 542.34,-180 542.34,-144 742.84,-144 742.84,-180"/>
<text text-anchor="middle" x="642.59" y="-156.95" font-family="Times,serif" font-size="14.00">azurerm_virtual_network.qa_vnet</text>
</g>
<!-- [root] azurerm_subnet.qa_subnet (expand)&#45;&gt;[root] azurerm_virtual_network.qa_vnet (expand) -->
<g id="edge5" class="edge">
<title>[root] azurerm_subnet.qa_subnet (expand)&#45;&gt;[root] azurerm_virtual_network.qa_vnet (expand)</title>
<path fill="none" stroke="black" d="M642.59,-215.7C642.59,-208.24 642.59,-199.32 642.59,-190.97"/>
<polygon fill="black" stroke="black" points="646.09,-191.1 642.59,-181.1 639.09,-191.1 646.09,-191.1"/>
</g>
<!-- [root] azurerm_virtual_machine.qa_vm (expand) -->
<g id="node4" class="node">
<title>[root] azurerm_virtual_machine.qa_vm (expand)</title>
<polygon fill="none" stroke="black" points="741.34,-396 543.84,-396 543.84,-360 741.34,-360 741.34,-396"/>
<text text-anchor="middle" x="642.59" y="-372.95" font-family="Times,serif" font-size="14.00">azurerm_virtual_machine.qa_vm</text>
</g>
<!-- [root] azurerm_virtual_machine.qa_vm (expand)&#45;&gt;[root] azurerm_network_interface.qa_nic (expand) -->
<g id="edge6" class="edge">
<title>[root] azurerm_virtual_machine.qa_vm (expand)&#45;&gt;[root] azurerm_network_interface.qa_nic (expand)</title>
<path fill="none" stroke="black" d="M642.59,-359.7C642.59,-352.24 642.59,-343.32 642.59,-334.97"/>
<polygon fill="black" stroke="black" points="646.09,-335.1 642.59,-325.1 639.09,-335.1 646.09,-335.1"/>
</g>
<!-- [root] azurerm_virtual_network.qa_vnet (expand)&#45;&gt;[root] azurerm_resource_group.qa_resource_group (expand) -->
<g id="edge7" class="edge">
<title>[root] azurerm_virtual_network.qa_vnet (expand)&#45;&gt;[root] azurerm_resource_group.qa_resource_group (expand)</title>
<path fill="none" stroke="black" d="M642.59,-143.7C642.59,-136.24 642.59,-127.32 642.59,-118.97"/>
<polygon fill="black" stroke="black" points="646.09,-119.1 642.59,-109.1 639.09,-119.1 646.09,-119.1"/>
</g>
<!-- [root] provider[&quot;registry.terraform.io/hashicorp/azurerm&quot;] (close) -->
<g id="node9" class="node">
<title>[root] provider[&quot;registry.terraform.io/hashicorp/azurerm&quot;] (close)</title>
<ellipse fill="none" stroke="black" cx="642.59" cy="-450" rx="254.54" ry="18"/>
<text text-anchor="middle" x="642.59" y="-444.95" font-family="Times,serif" font-size="14.00">[root] provider[&quot;registry.terraform.io/hashicorp/azurerm&quot;] (close)</text>
</g>
<!-- [root] provider[&quot;registry.terraform.io/hashicorp/azurerm&quot;] (close)&#45;&gt;[root] azurerm_virtual_machine.qa_vm (expand) -->
<g id="edge8" class="edge">
<title>[root] provider[&quot;registry.terraform.io/hashicorp/azurerm&quot;] (close)&#45;&gt;[root] azurerm_virtual_machine.qa_vm (expand)</title>
<path fill="none" stroke="black" d="M642.59,-431.7C642.59,-424.24 642.59,-415.32 642.59,-406.97"/>
<polygon fill="black" stroke="black" points="646.09,-407.1 642.59,-397.1 639.09,-407.1 646.09,-407.1"/>
</g>
<!-- [root] root -->
<g id="node10" class="node">
<title>[root] root</title>
<ellipse fill="none" stroke="black" cx="642.59" cy="-522" rx="49.3" ry="18"/>
<text text-anchor="middle" x="642.59" y="-516.95" font-family="Times,serif" font-size="14.00">[root] root</text>
</g>
<!-- [root] root&#45;&gt;[root] provider[&quot;registry.terraform.io/hashicorp/azurerm&quot;] (close) -->
<g id="edge9" class="edge">
<title>[root] root&#45;&gt;[root] provider[&quot;registry.terraform.io/hashicorp/azurerm&quot;] (close)</title>
<path fill="none" stroke="black" d="M642.59,-503.7C642.59,-496.24 642.59,-487.32 642.59,-478.97"/>
<polygon fill="black" stroke="black" points="646.09,-479.1 642.59,-469.1 639.09,-479.1 646.09,-479.1"/>
</g>
</g>
</svg>
